<mxfile host="app.diagrams.net" modified="2024-04-09T08:56:28.402Z" agent="Mozilla/5.0 (Macintosh; Intel Mac OS X 10_15_7) AppleWebKit/605.1.15 (KHTML, like Gecko) Version/17.2.1 Safari/605.1.15" version="24.2.2" etag="wzMYv3y7Pisx6g4w0ZP_" type="github">
  <diagram name="Page-1" id="ywiKdWh9tKXAp5XRnhwK">
    <mxGraphModel>
      <root>
        <mxCell id="0" />
        <mxCell id="1" parent="0" />
      </root>
    </mxGraphModel>
  </diagram>
</mxfile>
